<?xml version="1.0" encoding="UTF-8"?><!DOCTYPE svg PUBLIC "-//W3C//DTD SVG 1.1//EN" "http://www.w3.org/Graphics/SVG/1.1/DTD/svg11.dtd"><svg xmlns="http://www.w3.org/2000/svg"><symbol id="icon-arr-smp" viewBox="0 0 116.1 62.1">
    <path d="M114.9 1.2c-1.6-1.6-4.2-1.6-5.8 0l-51 51.1L7 1.2C5.4-.4 2.8-.4 1.2 1.2S-.4 5.4 1.2 7l53.9 53.9c.8.8 1.8 1.2 2.9 1.2 1 0 2.1-.4 2.9-1.2L114.8 7c1.7-1.6 1.7-4.2.1-5.8z"/>
</symbol><symbol id="icon-moon" viewBox="0 0 202.748 202.748">
    <path d="M199.876 119.867a7.5 7.5 0 0 0-8.366-.6c-12.57 7.225-25.856 10.889-39.489 10.889-43.804 0-79.44-35.638-79.44-79.443 0-13.693 3.669-26.961 10.906-39.434a7.498 7.498 0 0 0-.576-8.379A7.496 7.496 0 0 0 74.922.309c-21.161 6.1-40.207 19.042-53.629 36.441C7.363 54.809 0 76.437 0 99.297c0 57.035 46.4 103.438 103.434 103.438 22.86 0 44.493-7.36 62.561-21.286 17.411-13.419 30.359-32.454 36.459-53.6a7.5 7.5 0 0 0-2.578-7.982zm-96.442 67.867C54.671 187.734 15 148.061 15 99.297c0-32.898 18.825-62.836 47.436-77.882a90.487 90.487 0 0 0-4.855 29.298c0 52.076 42.366 94.443 94.44 94.443 10 0 19.816-1.634 29.347-4.873-15.044 28.617-45.008 47.451-77.934 47.451z"/>
</symbol><symbol id="icon-sun" viewBox="0 0 612.697 612.697">
    <path d="M593.235 286.701h-82.711c-10.773 0-19.113 8.378-19.113 19.128s8.34 19.425 19.113 19.425h82.711c10.772 0 19.113-8.675 19.113-19.425s-8.34-19.128-19.113-19.128z"/>
    <path d="M464.305 175.861l58.378-59.09c7.451-7.562 7.726-18.832 0-27.136-7.229-7.71-19.157-8.007-27.105 0l-58.386 59.09c-7.443 7.562-7.992 19.128 0 27.135 7.302 7.267 19.855 7.341 27.113.001z"/>
    <path d="M464.305 436.836c-7.999-8.007-20.158-8.007-27.113 0-7.992 6.969-7.488 19.647 0 27.136l58.386 58.348c5.909 7.34 21.204 7.34 27.105 0 8-6.895 7.993-19.128 0-27.061l-58.378-58.423z"/>
    <path d="M306.178 121.665c10.773 0 19.461-8.378 19.461-19.128V19.128C325.64 8.378 316.951 0 306.178 0s-19.114 8.378-19.114 19.128v83.408c0 10.751 8.341 19.129 19.114 19.129z"/>
    <path d="M306.178 491.032c-10.773 0-19.114 8.378-19.114 19.129v83.408c0 10.083 8.341 19.128 19.114 19.128s19.461-9.045 19.461-19.796v-82.74c.001-10.751-8.688-19.129-19.461-19.129z"/>
    <path d="M411.132 200.847c-29.02-28.989-63.946-43.743-104.954-43.743-41.015 0-76.113 14.605-105.302 43.743-28.848 28.841-43.446 63.983-43.446 104.983s14.428 76.291 43.446 105.28c29.019 29.062 64.287 43.446 105.302 43.446 41.007 0 76.105-14.605 104.954-43.446 29.188-29.138 43.787-64.28 43.787-105.28s-14.769-75.92-43.787-104.983zm-26.766 183.201c-21.545 21.501-47.605 32.325-78.188 32.325-30.234 0-56.302-10.824-77.848-32.325-21.545-21.575-32.325-47.672-32.325-78.218 0-30.25 10.78-56.272 32.325-77.848 21.545-21.575 47.613-32.325 77.848-32.325 30.583 0 56.643 10.75 78.188 32.325 21.553 21.575 32.326 47.598 32.326 77.848 0 30.546-10.773 56.643-32.326 78.218z"/>
    <path d="M149.089 175.861c3.826 3.781 8.341 5.561 13.56 5.561 4.515 0 9.03-1.779 13.553-5.561 6.947-8.007 6.947-20.166 0-27.135l-59.083-59.09c-6.947-6.895-20.159-6.895-27.106 0-7.992 8.007-7.488 19.647 0 27.136l59.076 59.089z"/>
    <path d="M148.4 436.836l-58.386 58.423c-7.992 7.933-7.992 19.795 0 27.803 7.295 7.266 19.811 7.266 27.106 0l59.083-59.09c7.488-7.488 6.947-20.167 0-27.136-7.993-8.007-19.811-8.007-27.803 0z"/>
    <path d="M121.983 305.83c0-10.75-8.341-19.128-19.113-19.128H19.462C8.69 286.702.349 295.08.349 305.83s8.341 19.425 19.113 19.425h83.408c10.773 0 19.113-8.675 19.113-19.425z"/>
</symbol></svg>